<?xml version="1.0" encoding="UTF-8" standalone="no"?>
<!-- Created with Inkscape (http://www.inkscape.org/) -->

<svg
   width="20"
   height="20"
   viewBox="0 0 132.29167 132.29167"
   version="1.1"
   id="svg5"
   inkscape:version="1.1 (c68e22c387, 2021-05-23)"
   sodipodi:docname="link2.svg"
   xmlns:inkscape="http://www.inkscape.org/namespaces/inkscape"
   xmlns:sodipodi="http://sodipodi.sourceforge.net/DTD/sodipodi-0.dtd"
   xmlns="http://www.w3.org/2000/svg"
   xmlns:svg="http://www.w3.org/2000/svg">
  <sodipodi:namedview
     id="namedview7"
     pagecolor="#ffffff"
     bordercolor="#999999"
     borderopacity="1"
     inkscape:pageshadow="0"
     inkscape:pageopacity="0"
     inkscape:pagecheckerboard="0"
     inkscape:document-units="px"
     showgrid="true"
     width="500mm"
     units="px"
     inkscape:snap-bbox="true"
     inkscape:bbox-paths="true"
     inkscape:bbox-nodes="true"
     inkscape:snap-bbox-edge-midpoints="true"
     inkscape:snap-bbox-midpoints="true"
     inkscape:object-paths="true"
     inkscape:snap-intersection-paths="true"
     inkscape:snap-smooth-nodes="true"
     inkscape:snap-midpoints="true"
     inkscape:snap-center="true"
     inkscape:snap-text-baseline="true"
     inkscape:snap-object-midpoints="true"
     inkscape:snap-page="true"
     inkscape:zoom="0.66635802"
     inkscape:cx="357.9157"
     inkscape:cy="353.41362"
     inkscape:window-width="1920"
     inkscape:window-height="1017"
     inkscape:window-x="-8"
     inkscape:window-y="-8"
     inkscape:window-maximized="1"
     inkscape:current-layer="layer1"
     showguides="true"
     inkscape:guide-bbox="true">
    <inkscape:grid
       type="xygrid"
       id="grid824"
       enabled="false" />
    <inkscape:grid
       type="axonomgrid"
       id="grid826"
       enabled="false" />
    <sodipodi:guide
       position="66.145836,66.145834"
       orientation="1,0"
       id="guide823" />
    <sodipodi:guide
       position="66.145836,66.145834"
       orientation="0,-1"
       id="guide973" />
    <sodipodi:guide
       position="99.218754,66.145834"
       orientation="1,0"
       id="guide1072" />
    <sodipodi:guide
       position="14.036133,99.218752"
       orientation="0,-1"
       id="guide2423" />
    <sodipodi:guide
       position="115.75521,33.072914"
       orientation="0,-1"
       id="guide2756" />
  </sodipodi:namedview>
  <defs
     id="defs2" />
  <g
     inkscape:label="Layer 1"
     inkscape:groupmode="layer"
     id="layer1">
    <g
       id="rect1140"
       transform="scale(0.26458334)"
       style="fill:#ffffff;fill-opacity:1">
      <path
         style="color:#000000;fill:#ffffff;stroke-width:11.3856;stroke-linecap:round;stroke-linejoin:round;-inkscape-stroke:none;fill-opacity:1"
         d="M 333.75,5.6601562 C 292.62916,5.6586147 251.50825,21.325725 220.17188,52.662109 l -32.39844,32.398438 a 20.489964,20.489964 0 0 0 -0.69532,0.519531 20.489964,20.489964 0 0 0 -0.42578,0.601563 l -0.89648,0.898437 0.15234,0.152344 a 20.489964,20.489964 0 0 0 1.45508,27.230468 20.489964,20.489964 0 0 0 27.02734,1.25195 l 0.16407,0.16407 1.04297,-1.04102 a 20.489964,20.489964 0 0 0 0.64453,-0.4707 l -0.0879,-0.0879 0.3789,-0.37891 0.084,0.082 a 20.489964,20.489964 0 0 0 0.36719,-0.5332 l 31.98828,-31.988282 c 47.217,-47.217003 122.33964,-47.211063 169.55664,0.0059 47.21703,47.217002 47.21703,122.333782 0,169.550782 l -34.41797,34.41797 0.0293,0.0293 a 20.365735,20.365735 0 0 0 -0.21679,0.16211 20.365735,20.365735 0 0 0 0.2832,28.70313 20.365735,20.365735 0 0 0 28.70703,-0.0937 l 34.41797,-34.41797 c 62.67277,-62.67277 62.67087,-164.47762 -0.002,-227.15039 h -0.002 C 415.99183,21.331525 374.87084,5.6616979 333.75,5.6601562 Z M 333.62695,145.08008 c -5.43621,0 -10.87135,2.0823 -15.03711,6.24804 L 151.3418,318.57422 c -8.33151,8.33151 -8.33152,21.74465 0,30.07617 8.33151,8.33152 21.74467,8.33151 30.07617,0 L 348.66602,181.4043 c 8.33151,-8.33151 8.33152,-21.74465 0,-30.07618 -4.16576,-4.16575 -9.60285,-6.24804 -15.03907,-6.24804 z m -232.32617,34.72656 a 20.364642,20.364642 0 0 0 -14.177733,5.96289 l -0.0293,-0.0293 -34.414062,34.41602 c -62.6727732,62.67277 -62.6691627,164.48348 0.0039,227.15625 62.672775,62.67277 164.481525,62.67277 227.154295,0 l 30.83008,-30.83008 a 20.524227,20.524227 0 0 0 1.89453,-1.66992 l -0.11133,-0.11328 0.37695,-0.37695 0.10938,0.10351 a 20.524227,20.524227 0 0 0 0.46875,-0.68164 l 0.8457,-0.8457 -0.15625,-0.1543 a 20.524227,20.524227 0 0 0 -1.82031,-27.24219 20.524227,20.524227 0 0 0 -26.65039,-1.22851 l -0.17578,-0.17578 -1.2207,1.2207 a 20.524227,20.524227 0 0 0 -0.88086,0.6582 20.524227,20.524227 0 0 0 -0.53711,0.75977 l -31.77539,31.77539 c -47.21741,47.21669 -122.33964,47.22285 -169.556643,0.004 -47.216999,-47.21701 -47.217019,-122.34548 0,-169.5625 l 34.414063,-34.41406 -14.39844,-14.40039 14.77148,14.01758 a 20.364642,20.364642 0 0 0 -0.6582,-28.69531 20.364642,20.364642 0 0 0 -14.30664,-5.6543 z"
         id="path3103" />
      <path
         style="color:#000000;fill:#ffffff;stroke-linecap:round;stroke-linejoin:round;-inkscape-stroke:none;fill-opacity:1"
         d="M 333.75,-0.03320312 C 291.18308,-0.03479883 248.57274,16.210449 216.14648,48.636719 L 184.0293,80.753906 c -0.1517,0.113225 -0.30587,0.22335 -0.45508,0.339844 a 5.6933693,5.6933693 0 0 0 -1.08203,1.115234 c -0.0692,0.09408 -0.13523,0.190166 -0.20313,0.285157 l -0.5625,0.564453 a 5.6933693,5.6933693 0 0 0 -0.26172,0.634765 l -0.002,-0.01758 c -8.27974,10.350834 -7.47627,25.387331 1.85938,34.796881 a 5.6933693,5.6933693 0 0 0 0.0879,0.0879 c 8.89165,8.57752 22.53619,9.58372 32.65625,2.83789 l -0.32618,-0.31641 a 5.6933693,5.6933693 0 0 0 2.17383,-0.90039 c 0.0105,-0.008 0.0227,-0.0131 0.0332,-0.0215 l -3.33985,-0.18555 -1.9668,-1.91797 a 5.6933693,5.6933693 0 0 0 8.24805,-0.5625 5.6933693,5.6933693 0 0 0 -0.62109,-7.15234 l 3.9375,3.9375 28.79297,-28.792974 c 45.08196,-45.081965 116.42356,-45.076404 161.50586,0.0059 45.08232,45.082304 45.08232,116.417704 0,161.500004 l -34.41797,34.41797 a 5.6933693,5.6933693 0 0 0 -0.0215,0.0508 5.6933693,5.6933693 0 0 0 -0.21875,0.19336 c -9.94722,10.21392 -9.78549,26.7109 0.36133,36.72656 10.14841,10.01666 26.64962,9.96355 36.73242,-0.11914 l 34.41797,-34.41797 c 64.85236,-64.85236 64.85043,-170.3489 -0.002,-235.201173 a 5.6933693,5.6933693 0 0 0 -0.002,0 l -0.002,-0.002 C 418.92582,16.215645 376.31602,-0.03160724 333.75,-0.03320312 Z m 0,11.38671912 c 39.67471,0.0015 79.30637,15.09319 109.55273,45.339843 a 5.6933693,5.6933693 0 0 0 0.004,0.002 c 60.49126,60.493301 60.4924,158.605261 0,219.097661 l -34.41797,34.41797 c -5.7504,5.75034 -14.89382,5.78104 -20.68164,0.0684 -5.78688,-5.71208 -5.87812,-14.85454 -0.20508,-20.67969 l -0.40039,0.35351 a 5.6933693,5.6933693 0 0 0 0.56446,-8.51367 l 3.99609,3.9961 30.39258,-30.39258 c 49.35164,-49.35161 49.35164,-128.24995 0,-177.601567 C 373.20308,28.089838 294.29921,28.0836 244.94727,77.435547 l -31.98829,31.988283 a 5.6933693,5.6933693 0 0 0 -0.0215,0.0254 l 1.62109,-1.61719 0.83594,0.83594 a 5.6933693,5.6933693 0 0 0 -2.76172,1.1543 5.6933693,5.6933693 0 0 0 -0.26953,0.32812 c -0.0114,0.008 -0.0218,0.0174 -0.0332,0.0254 a 5.6933693,5.6933693 0 0 0 -0.25977,0.2168 5.6933693,5.6933693 0 0 0 -0.22851,0.55469 5.6933693,5.6933693 0 0 0 -1.00782,0.32226 c -5.82755,4.663 -14.08583,4.28916 -19.47265,-0.86719 -5.28222,-5.37133 -5.7184,-13.724379 -1.00781,-19.613278 a 5.6933693,5.6933693 0 0 0 0.36132,-0.61914 l -0.0332,0.0332 a 5.6933693,5.6933693 0 0 0 0.0469,-0.05664 5.6933693,5.6933693 0 0 0 0.19726,-0.335937 c 0.0532,-0.03912 0.10447,-0.08074 0.1582,-0.119141 a 5.6933693,5.6933693 0 0 0 0.0703,-0.06055 5.6933693,5.6933693 0 0 0 0.20312,-0.24414 c 0.0999,-0.146641 0.20155,-0.292593 0.30664,-0.435547 l -0.5957,0.615234 a 5.6933693,5.6933693 0 0 0 -1.13477,-6.359375 l 3.86914,3.869141 -2.01757,2.021484 a 5.6933693,5.6933693 0 0 0 0.0137,-0.01172 L 224.19727,56.6875 C 254.44369,26.441064 294.07532,11.352028 333.75,11.353516 Z M 212.51367,109.87305 a 5.6933693,5.6933693 0 0 0 -0.006,0.002 l -0.3789,0.37891 a 5.6933693,5.6933693 0 0 0 -0.002,0.006 z m 4.44727,0.36133 1.45508,1.45507 a 5.6933693,5.6933693 0 0 0 -2.95704,-1.32226 z m -4.01172,0.35937 a 5.6933693,5.6933693 0 0 0 -0.21094,0.0664 l 0.004,-0.0488 z m 8.77344,6.00977 -0.63672,0.77734 a 5.6933693,5.6933693 0 0 0 0.0391,-0.0215 5.6933693,5.6933693 0 0 0 0.12891,-0.0742 c 0.0413,-0.058 0.0803,-0.11749 0.12109,-0.17578 0.11734,-0.16763 0.23428,-0.33553 0.34766,-0.50586 z m -1.42774,1.58593 -0.6875,0.6875 -0.74219,0.62305 c 0.14912,-0.10451 0.29451,-0.21467 0.44141,-0.32227 l 0.004,-0.004 c 0.12588,-0.0922 0.25468,-0.18091 0.3789,-0.27539 a 5.6933693,5.6933693 0 0 0 0.60547,-0.70899 z m 113.33203,21.19727 c -6.88992,0 -13.81678,2.67032 -19.0625,7.91601 l -167.24804,167.2461 c -10.49171,10.49171 -10.49172,27.63523 0,38.12695 10.49171,10.49173 27.63524,10.49172 38.12695,0 L 352.69141,185.42969 c 10.49171,-10.49171 10.49171,-27.63523 0,-38.12696 -5.24635,-5.24633 -12.17453,-7.91601 -19.06446,-7.91601 z m 0,11.38672 c 3.98251,0 7.92851,1.49492 11.01367,4.58008 6.17131,6.17131 6.1713,15.85409 0,22.02539 L 177.39258,344.625 c -6.17128,6.17129 -15.8541,6.1713 -22.02539,0 -6.17131,-6.1713 -6.1713,-15.8541 0,-22.02539 L 322.61523,155.35352 c 3.0858,-3.08579 7.02924,-4.58008 11.01172,-4.58008 z m -232.38867,23.33984 c -6.765472,0.0736 -13.232743,2.78975 -18.039061,7.54688 a 5.6933693,5.6933693 0 0 0 -0.13086,0.0547 l -34.414062,34.41602 c -64.852524,64.85252 -64.848757,170.35467 0.0039,235.20703 64.852403,64.8524 170.352673,64.8524 235.205073,0 l 29.07422,-29.07422 -3.91211,-3.70312 a 5.6933693,5.6933693 0 0 0 8.14063,-0.58594 5.6933693,5.6933693 0 0 0 -0.54297,-7.15234 l 1.72656,1.75781 0.24023,3.6582 c 0.38908,-0.50032 0.65653,-1.05419 1.00391,-1.57422 a 5.6933693,5.6933693 0 0 0 0.13477,-0.68164 l 0.18164,0.18555 c 6.55632,-10.31229 5.22242,-24.01592 -3.64649,-32.72656 a 5.6933693,5.6933693 0 0 0 -0.0937,-0.0918 c -9.38251,-8.8033 -23.88092,-9.47187 -34.03515,-1.57227 -0.002,0.001 -0.004,0.002 -0.006,0.004 a 5.6933693,5.6933693 0 0 0 -0.70508,0.29102 l -0.9375,0.9375 c -0.22358,0.16531 -0.44975,0.32764 -0.66797,0.5 a 5.6933693,5.6933693 0 0 0 -1.04297,1.07617 c -0.11257,0.15181 -0.21887,0.30868 -0.32812,0.46289 l -31.4375,31.4375 c -45.08273,45.08204 -116.42385,45.08768 -161.50586,0.004 -45.081965,-45.08197 -45.081984,-116.42973 0,-161.51171 l 34.41406,-34.41407 a 5.6933693,5.6933693 0 0 0 0.26367,-0.39648 5.6933693,5.6933693 0 0 0 0.21289,-0.0937 c 9.81239,-10.34257 9.43449,-26.83501 -0.8418,-36.7168 a 5.6933693,5.6933693 0 0 0 -0.008,-0.008 c -4.91561,-4.70672 -11.48426,-7.30215 -18.28906,-7.23242 a 5.6933693,5.6933693 0 0 0 -0.0176,-0.004 z m 0.125,11.38672 c 3.83827,-0.042 7.53414,1.41759 10.30664,4.07227 4.39432,4.23183 5.60306,10.43543 3.56641,15.75976 l -9.7168,-9.21875 -0.10742,-0.10351 a 5.6933693,5.6933693 0 0 0 -7.94336,8.15429 l 10.37305,10.375 -30.388675,30.38867 c -49.351959,49.35196 -49.351938,128.26134 0,177.61329 49.351905,49.35383 128.255425,49.34733 177.607425,-0.004 l 31.77539,-31.77539 a 5.6933693,5.6933693 0 0 0 0.61523,-0.7461 c 0.0212,-0.0151 0.0412,-0.0318 0.0625,-0.0469 a 5.6933693,5.6933693 0 0 0 0.74024,-0.625 l 0.44921,-0.44922 a 5.6933693,5.6933693 0 0 0 0.41797,-0.12891 c 5.78293,-4.50142 13.86943,-4.13065 19.22461,0.86524 5.34464,5.31234 5.88816,13.6623 1.25586,19.61914 a 5.6933693,5.6933693 0 0 0 -0.10937,0.35742 l -0.11133,0.11133 a 5.6933693,5.6933693 0 0 0 -0.41406,0.50977 5.6933693,5.6933693 0 0 0 -0.16407,0.0684 l -0.37695,0.37696 a 5.6933693,5.6933693 0 0 0 -0.13867,0.33398 c -0.35828,0.34119 -0.7226,0.67669 -1.11328,0.98047 a 5.6933693,5.6933693 0 0 0 -0.53125,0.46875 l -30.83008,30.83008 c -60.49301,60.49301 -158.6105,60.49301 -219.103516,0 -60.4933363,-60.49305 -60.4968034,-158.61257 -0.0039,-219.10547 l 34.34375,-34.3457 a 5.6933693,5.6933693 0 0 0 0.09961,-0.041 c 2.713797,-2.71358 6.377335,-4.25315 10.214846,-4.29492 z m 216.79688,231.375 -0.72852,0.89453 -0.12109,0.12109 a 5.6933693,5.6933693 0 0 0 0.25195,-0.14453 c 0.0806,-0.11227 0.15558,-0.22827 0.23437,-0.34179 0.12206,-0.17586 0.24556,-0.3505 0.36329,-0.5293 z m -1.11914,1.28516 -2.34766,2.34765 c 0.64867,-0.53314 1.29394,-1.07096 1.88867,-1.66406 a 5.6933693,5.6933693 0 0 0 0.45899,-0.68359 z"
         id="path3105" />
    </g>
  </g>
</svg>
